<mxfile host="app.diagrams.net" modified="2022-04-14T06:24:01.261Z" agent="5.0 (Macintosh; Intel Mac OS X 10_15_7) AppleWebKit/537.36 (KHTML, like Gecko) Chrome/100.0.4896.75 Safari/537.36" etag="bR3PPYGIbH0zsb2FdWXI" version="17.4.2" type="github">
  <diagram id="6a731a19-8d31-9384-78a2-239565b7b9f0" name="Page-1">
    <mxGraphModel dx="1278" dy="747" grid="0" gridSize="10" guides="1" tooltips="1" connect="1" arrows="1" fold="1" page="1" pageScale="1" pageWidth="1169" pageHeight="827" background="none" math="0" shadow="0">
      <root>
        <mxCell id="0" />
        <mxCell id="1" parent="0" />
        <mxCell id="wBIS5orwxucfIh2n_rTm-1786" style="edgeStyle=orthogonalEdgeStyle;rounded=0;orthogonalLoop=1;jettySize=auto;html=1;exitX=0.25;exitY=0;exitDx=0;exitDy=0;entryX=0.25;entryY=1;entryDx=0;entryDy=0;fontSize=17;" edge="1" parent="1" source="wBIS5orwxucfIh2n_rTm-1779" target="wBIS5orwxucfIh2n_rTm-1780">
          <mxGeometry relative="1" as="geometry" />
        </mxCell>
        <mxCell id="wBIS5orwxucfIh2n_rTm-1798" value="1" style="edgeLabel;html=1;align=center;verticalAlign=middle;resizable=0;points=[];fontSize=17;" vertex="1" connectable="0" parent="wBIS5orwxucfIh2n_rTm-1786">
          <mxGeometry x="0.0769" y="-1" relative="1" as="geometry">
            <mxPoint as="offset" />
          </mxGeometry>
        </mxCell>
        <mxCell id="wBIS5orwxucfIh2n_rTm-1788" style="edgeStyle=orthogonalEdgeStyle;rounded=0;orthogonalLoop=1;jettySize=auto;html=1;exitX=1;exitY=0.25;exitDx=0;exitDy=0;entryX=0;entryY=0.25;entryDx=0;entryDy=0;fontSize=17;" edge="1" parent="1" source="wBIS5orwxucfIh2n_rTm-1779" target="wBIS5orwxucfIh2n_rTm-1782">
          <mxGeometry relative="1" as="geometry" />
        </mxCell>
        <mxCell id="wBIS5orwxucfIh2n_rTm-1804" value="5" style="edgeLabel;html=1;align=center;verticalAlign=middle;resizable=0;points=[];fontSize=17;" vertex="1" connectable="0" parent="wBIS5orwxucfIh2n_rTm-1788">
          <mxGeometry x="0.0333" y="-2" relative="1" as="geometry">
            <mxPoint as="offset" />
          </mxGeometry>
        </mxCell>
        <mxCell id="wBIS5orwxucfIh2n_rTm-1790" style="rounded=0;orthogonalLoop=1;jettySize=auto;html=1;exitX=0.75;exitY=0;exitDx=0;exitDy=0;entryX=0;entryY=0.75;entryDx=0;entryDy=0;fontSize=17;" edge="1" parent="1" source="wBIS5orwxucfIh2n_rTm-1779" target="wBIS5orwxucfIh2n_rTm-1781">
          <mxGeometry relative="1" as="geometry" />
        </mxCell>
        <mxCell id="wBIS5orwxucfIh2n_rTm-1799" value="3" style="edgeLabel;html=1;align=center;verticalAlign=middle;resizable=0;points=[];fontSize=17;" vertex="1" connectable="0" parent="wBIS5orwxucfIh2n_rTm-1790">
          <mxGeometry x="0.1077" relative="1" as="geometry">
            <mxPoint as="offset" />
          </mxGeometry>
        </mxCell>
        <mxCell id="wBIS5orwxucfIh2n_rTm-1779" value="Client" style="rounded=0;whiteSpace=wrap;html=1;fontSize=17;fillColor=#fff2cc;strokeColor=#d6b656;" vertex="1" parent="1">
          <mxGeometry x="200" y="324" width="120" height="60" as="geometry" />
        </mxCell>
        <mxCell id="wBIS5orwxucfIh2n_rTm-1793" value="2" style="edgeStyle=none;rounded=0;orthogonalLoop=1;jettySize=auto;html=1;exitX=0.75;exitY=1;exitDx=0;exitDy=0;entryX=0.75;entryY=0;entryDx=0;entryDy=0;fontSize=17;" edge="1" parent="1" source="wBIS5orwxucfIh2n_rTm-1780" target="wBIS5orwxucfIh2n_rTm-1779">
          <mxGeometry relative="1" as="geometry" />
        </mxCell>
        <mxCell id="wBIS5orwxucfIh2n_rTm-1780" value="DNS" style="rounded=0;whiteSpace=wrap;html=1;fontSize=17;" vertex="1" parent="1">
          <mxGeometry x="200" y="160" width="120" height="60" as="geometry" />
        </mxCell>
        <mxCell id="wBIS5orwxucfIh2n_rTm-1791" style="edgeStyle=none;rounded=0;orthogonalLoop=1;jettySize=auto;html=1;exitX=0.25;exitY=1;exitDx=0;exitDy=0;entryX=1;entryY=0.25;entryDx=0;entryDy=0;fontSize=17;" edge="1" parent="1" source="wBIS5orwxucfIh2n_rTm-1781" target="wBIS5orwxucfIh2n_rTm-1779">
          <mxGeometry relative="1" as="geometry" />
        </mxCell>
        <mxCell id="wBIS5orwxucfIh2n_rTm-1803" value="4" style="edgeLabel;html=1;align=center;verticalAlign=middle;resizable=0;points=[];fontSize=17;" vertex="1" connectable="0" parent="wBIS5orwxucfIh2n_rTm-1791">
          <mxGeometry x="-0.137" relative="1" as="geometry">
            <mxPoint y="-1" as="offset" />
          </mxGeometry>
        </mxCell>
        <mxCell id="wBIS5orwxucfIh2n_rTm-1794" style="edgeStyle=none;rounded=0;orthogonalLoop=1;jettySize=auto;html=1;exitX=0.25;exitY=0;exitDx=0;exitDy=0;entryX=0.25;entryY=1;entryDx=0;entryDy=0;fontSize=17;" edge="1" parent="1" source="wBIS5orwxucfIh2n_rTm-1781" target="wBIS5orwxucfIh2n_rTm-1784">
          <mxGeometry relative="1" as="geometry" />
        </mxCell>
        <mxCell id="wBIS5orwxucfIh2n_rTm-1801" value="p1" style="edgeLabel;html=1;align=center;verticalAlign=middle;resizable=0;points=[];fontSize=17;" vertex="1" connectable="0" parent="wBIS5orwxucfIh2n_rTm-1794">
          <mxGeometry x="0.25" y="-1" relative="1" as="geometry">
            <mxPoint as="offset" />
          </mxGeometry>
        </mxCell>
        <mxCell id="wBIS5orwxucfIh2n_rTm-1781" value="Config Server" style="rounded=0;whiteSpace=wrap;html=1;fontSize=17;fillColor=#fff2cc;strokeColor=#d6b656;" vertex="1" parent="1">
          <mxGeometry x="440" y="160" width="120" height="60" as="geometry" />
        </mxCell>
        <mxCell id="wBIS5orwxucfIh2n_rTm-1789" style="edgeStyle=orthogonalEdgeStyle;rounded=0;orthogonalLoop=1;jettySize=auto;html=1;exitX=0;exitY=0.75;exitDx=0;exitDy=0;entryX=1;entryY=0.75;entryDx=0;entryDy=0;fontSize=17;" edge="1" parent="1" source="wBIS5orwxucfIh2n_rTm-1782" target="wBIS5orwxucfIh2n_rTm-1779">
          <mxGeometry relative="1" as="geometry" />
        </mxCell>
        <mxCell id="wBIS5orwxucfIh2n_rTm-1805" value="6" style="edgeLabel;html=1;align=center;verticalAlign=middle;resizable=0;points=[];fontSize=17;" vertex="1" connectable="0" parent="wBIS5orwxucfIh2n_rTm-1789">
          <mxGeometry x="-0.05" relative="1" as="geometry">
            <mxPoint as="offset" />
          </mxGeometry>
        </mxCell>
        <mxCell id="wBIS5orwxucfIh2n_rTm-1782" value="Storage" style="rounded=0;whiteSpace=wrap;html=1;fontSize=17;fillColor=#fff2cc;strokeColor=#d6b656;" vertex="1" parent="1">
          <mxGeometry x="440" y="324" width="120" height="60" as="geometry" />
        </mxCell>
        <mxCell id="wBIS5orwxucfIh2n_rTm-1797" style="edgeStyle=none;rounded=0;orthogonalLoop=1;jettySize=auto;html=1;exitX=0;exitY=0.5;exitDx=0;exitDy=0;entryX=1;entryY=0.5;entryDx=0;entryDy=0;fontSize=17;" edge="1" parent="1" source="wBIS5orwxucfIh2n_rTm-1783" target="wBIS5orwxucfIh2n_rTm-1781">
          <mxGeometry relative="1" as="geometry" />
        </mxCell>
        <mxCell id="wBIS5orwxucfIh2n_rTm-1807" value="c1" style="edgeLabel;html=1;align=center;verticalAlign=middle;resizable=0;points=[];fontSize=17;" vertex="1" connectable="0" parent="wBIS5orwxucfIh2n_rTm-1797">
          <mxGeometry x="0.1167" relative="1" as="geometry">
            <mxPoint as="offset" />
          </mxGeometry>
        </mxCell>
        <mxCell id="wBIS5orwxucfIh2n_rTm-1783" value="Config Server View" style="rounded=0;whiteSpace=wrap;html=1;fontSize=17;" vertex="1" parent="1">
          <mxGeometry x="680" y="160" width="120" height="60" as="geometry" />
        </mxCell>
        <mxCell id="wBIS5orwxucfIh2n_rTm-1795" style="edgeStyle=none;rounded=0;orthogonalLoop=1;jettySize=auto;html=1;exitX=0.75;exitY=1;exitDx=0;exitDy=0;entryX=0.75;entryY=0;entryDx=0;entryDy=0;fontSize=17;" edge="1" parent="1" source="wBIS5orwxucfIh2n_rTm-1784" target="wBIS5orwxucfIh2n_rTm-1781">
          <mxGeometry relative="1" as="geometry" />
        </mxCell>
        <mxCell id="wBIS5orwxucfIh2n_rTm-1802" value="p2" style="edgeLabel;html=1;align=center;verticalAlign=middle;resizable=0;points=[];fontSize=17;" vertex="1" connectable="0" parent="wBIS5orwxucfIh2n_rTm-1795">
          <mxGeometry x="-0.3" y="-3" relative="1" as="geometry">
            <mxPoint as="offset" />
          </mxGeometry>
        </mxCell>
        <mxCell id="wBIS5orwxucfIh2n_rTm-1784" value="Mysql" style="rounded=0;whiteSpace=wrap;html=1;fontSize=17;" vertex="1" parent="1">
          <mxGeometry x="440" y="20" width="120" height="60" as="geometry" />
        </mxCell>
        <mxCell id="wBIS5orwxucfIh2n_rTm-1808" style="edgeStyle=orthogonalEdgeStyle;rounded=0;orthogonalLoop=1;jettySize=auto;html=1;exitX=0.25;exitY=0;exitDx=0;exitDy=0;entryX=0.25;entryY=1;entryDx=0;entryDy=0;fontSize=17;" edge="1" parent="1" source="wBIS5orwxucfIh2n_rTm-1814" target="wBIS5orwxucfIh2n_rTm-1816">
          <mxGeometry relative="1" as="geometry" />
        </mxCell>
        <mxCell id="wBIS5orwxucfIh2n_rTm-1809" value="1" style="edgeLabel;html=1;align=center;verticalAlign=middle;resizable=0;points=[];fontSize=17;" vertex="1" connectable="0" parent="wBIS5orwxucfIh2n_rTm-1808">
          <mxGeometry x="0.0769" y="-1" relative="1" as="geometry">
            <mxPoint as="offset" />
          </mxGeometry>
        </mxCell>
        <mxCell id="wBIS5orwxucfIh2n_rTm-1810" style="edgeStyle=orthogonalEdgeStyle;rounded=0;orthogonalLoop=1;jettySize=auto;html=1;exitX=1;exitY=0.25;exitDx=0;exitDy=0;entryX=0;entryY=0.25;entryDx=0;entryDy=0;fontSize=17;" edge="1" parent="1" source="wBIS5orwxucfIh2n_rTm-1814" target="wBIS5orwxucfIh2n_rTm-1824">
          <mxGeometry relative="1" as="geometry" />
        </mxCell>
        <mxCell id="wBIS5orwxucfIh2n_rTm-1811" value="5" style="edgeLabel;html=1;align=center;verticalAlign=middle;resizable=0;points=[];fontSize=17;" vertex="1" connectable="0" parent="wBIS5orwxucfIh2n_rTm-1810">
          <mxGeometry x="0.0333" y="-2" relative="1" as="geometry">
            <mxPoint as="offset" />
          </mxGeometry>
        </mxCell>
        <mxCell id="wBIS5orwxucfIh2n_rTm-1812" style="rounded=0;orthogonalLoop=1;jettySize=auto;html=1;exitX=0.25;exitY=0;exitDx=0;exitDy=0;entryX=0.25;entryY=1;entryDx=0;entryDy=0;fontSize=17;" edge="1" parent="1" source="wBIS5orwxucfIh2n_rTm-1824" target="wBIS5orwxucfIh2n_rTm-1821">
          <mxGeometry relative="1" as="geometry" />
        </mxCell>
        <mxCell id="wBIS5orwxucfIh2n_rTm-1813" value="3" style="edgeLabel;html=1;align=center;verticalAlign=middle;resizable=0;points=[];fontSize=17;" vertex="1" connectable="0" parent="wBIS5orwxucfIh2n_rTm-1812">
          <mxGeometry x="0.1077" relative="1" as="geometry">
            <mxPoint as="offset" />
          </mxGeometry>
        </mxCell>
        <mxCell id="wBIS5orwxucfIh2n_rTm-1814" value="Client" style="rounded=0;whiteSpace=wrap;html=1;fontSize=17;fillColor=#fff2cc;strokeColor=#d6b656;" vertex="1" parent="1">
          <mxGeometry x="200" y="734" width="120" height="60" as="geometry" />
        </mxCell>
        <mxCell id="wBIS5orwxucfIh2n_rTm-1815" value="2" style="edgeStyle=none;rounded=0;orthogonalLoop=1;jettySize=auto;html=1;exitX=0.75;exitY=1;exitDx=0;exitDy=0;entryX=0.75;entryY=0;entryDx=0;entryDy=0;fontSize=17;" edge="1" parent="1" source="wBIS5orwxucfIh2n_rTm-1816" target="wBIS5orwxucfIh2n_rTm-1814">
          <mxGeometry relative="1" as="geometry" />
        </mxCell>
        <mxCell id="wBIS5orwxucfIh2n_rTm-1816" value="KESS" style="rounded=0;whiteSpace=wrap;html=1;fontSize=17;" vertex="1" parent="1">
          <mxGeometry x="200" y="570" width="120" height="60" as="geometry" />
        </mxCell>
        <mxCell id="wBIS5orwxucfIh2n_rTm-1817" style="edgeStyle=none;rounded=0;orthogonalLoop=1;jettySize=auto;html=1;exitX=0.75;exitY=1;exitDx=0;exitDy=0;entryX=0.75;entryY=0;entryDx=0;entryDy=0;fontSize=17;" edge="1" parent="1" source="wBIS5orwxucfIh2n_rTm-1821" target="wBIS5orwxucfIh2n_rTm-1824">
          <mxGeometry relative="1" as="geometry" />
        </mxCell>
        <mxCell id="wBIS5orwxucfIh2n_rTm-1818" value="4" style="edgeLabel;html=1;align=center;verticalAlign=middle;resizable=0;points=[];fontSize=17;" vertex="1" connectable="0" parent="wBIS5orwxucfIh2n_rTm-1817">
          <mxGeometry x="-0.137" relative="1" as="geometry">
            <mxPoint y="-1" as="offset" />
          </mxGeometry>
        </mxCell>
        <mxCell id="wBIS5orwxucfIh2n_rTm-1819" style="edgeStyle=none;rounded=0;orthogonalLoop=1;jettySize=auto;html=1;exitX=0.25;exitY=0;exitDx=0;exitDy=0;entryX=0.25;entryY=1;entryDx=0;entryDy=0;fontSize=17;" edge="1" parent="1" source="wBIS5orwxucfIh2n_rTm-1821" target="wBIS5orwxucfIh2n_rTm-1830">
          <mxGeometry relative="1" as="geometry" />
        </mxCell>
        <mxCell id="wBIS5orwxucfIh2n_rTm-1820" value="p1" style="edgeLabel;html=1;align=center;verticalAlign=middle;resizable=0;points=[];fontSize=17;" vertex="1" connectable="0" parent="wBIS5orwxucfIh2n_rTm-1819">
          <mxGeometry x="0.25" y="-1" relative="1" as="geometry">
            <mxPoint as="offset" />
          </mxGeometry>
        </mxCell>
        <mxCell id="wBIS5orwxucfIh2n_rTm-1821" value="Config Server" style="rounded=0;whiteSpace=wrap;html=1;fontSize=17;fillColor=#fff2cc;strokeColor=#d6b656;" vertex="1" parent="1">
          <mxGeometry x="440" y="570" width="120" height="60" as="geometry" />
        </mxCell>
        <mxCell id="wBIS5orwxucfIh2n_rTm-1822" style="edgeStyle=orthogonalEdgeStyle;rounded=0;orthogonalLoop=1;jettySize=auto;html=1;exitX=0;exitY=0.75;exitDx=0;exitDy=0;entryX=1;entryY=0.75;entryDx=0;entryDy=0;fontSize=17;" edge="1" parent="1" source="wBIS5orwxucfIh2n_rTm-1824" target="wBIS5orwxucfIh2n_rTm-1814">
          <mxGeometry relative="1" as="geometry" />
        </mxCell>
        <mxCell id="wBIS5orwxucfIh2n_rTm-1823" value="6" style="edgeLabel;html=1;align=center;verticalAlign=middle;resizable=0;points=[];fontSize=17;" vertex="1" connectable="0" parent="wBIS5orwxucfIh2n_rTm-1822">
          <mxGeometry x="-0.05" relative="1" as="geometry">
            <mxPoint as="offset" />
          </mxGeometry>
        </mxCell>
        <mxCell id="wBIS5orwxucfIh2n_rTm-1832" style="edgeStyle=none;rounded=0;orthogonalLoop=1;jettySize=auto;html=1;exitX=1;exitY=0.25;exitDx=0;exitDy=0;entryX=0;entryY=0.25;entryDx=0;entryDy=0;fontSize=17;" edge="1" parent="1" source="wBIS5orwxucfIh2n_rTm-1824" target="wBIS5orwxucfIh2n_rTm-1831">
          <mxGeometry relative="1" as="geometry" />
        </mxCell>
        <mxCell id="wBIS5orwxucfIh2n_rTm-1824" value="RpcServer" style="rounded=0;whiteSpace=wrap;html=1;fontSize=17;fillColor=#fff2cc;strokeColor=#d6b656;" vertex="1" parent="1">
          <mxGeometry x="440" y="734" width="120" height="60" as="geometry" />
        </mxCell>
        <mxCell id="wBIS5orwxucfIh2n_rTm-1825" style="edgeStyle=none;rounded=0;orthogonalLoop=1;jettySize=auto;html=1;exitX=0;exitY=0.5;exitDx=0;exitDy=0;entryX=1;entryY=0.5;entryDx=0;entryDy=0;fontSize=17;" edge="1" parent="1" source="wBIS5orwxucfIh2n_rTm-1827" target="wBIS5orwxucfIh2n_rTm-1821">
          <mxGeometry relative="1" as="geometry" />
        </mxCell>
        <mxCell id="wBIS5orwxucfIh2n_rTm-1826" value="c1" style="edgeLabel;html=1;align=center;verticalAlign=middle;resizable=0;points=[];fontSize=17;" vertex="1" connectable="0" parent="wBIS5orwxucfIh2n_rTm-1825">
          <mxGeometry x="0.1167" relative="1" as="geometry">
            <mxPoint as="offset" />
          </mxGeometry>
        </mxCell>
        <mxCell id="wBIS5orwxucfIh2n_rTm-1827" value="Config Server View" style="rounded=0;whiteSpace=wrap;html=1;fontSize=17;" vertex="1" parent="1">
          <mxGeometry x="680" y="570" width="120" height="60" as="geometry" />
        </mxCell>
        <mxCell id="wBIS5orwxucfIh2n_rTm-1828" style="edgeStyle=none;rounded=0;orthogonalLoop=1;jettySize=auto;html=1;exitX=0.75;exitY=1;exitDx=0;exitDy=0;entryX=0.75;entryY=0;entryDx=0;entryDy=0;fontSize=17;" edge="1" parent="1" source="wBIS5orwxucfIh2n_rTm-1830" target="wBIS5orwxucfIh2n_rTm-1821">
          <mxGeometry relative="1" as="geometry" />
        </mxCell>
        <mxCell id="wBIS5orwxucfIh2n_rTm-1829" value="p2" style="edgeLabel;html=1;align=center;verticalAlign=middle;resizable=0;points=[];fontSize=17;" vertex="1" connectable="0" parent="wBIS5orwxucfIh2n_rTm-1828">
          <mxGeometry x="-0.3" y="-3" relative="1" as="geometry">
            <mxPoint as="offset" />
          </mxGeometry>
        </mxCell>
        <mxCell id="wBIS5orwxucfIh2n_rTm-1830" value="Mysql" style="rounded=0;whiteSpace=wrap;html=1;fontSize=17;" vertex="1" parent="1">
          <mxGeometry x="440" y="430" width="120" height="60" as="geometry" />
        </mxCell>
        <mxCell id="wBIS5orwxucfIh2n_rTm-1833" style="edgeStyle=none;rounded=0;orthogonalLoop=1;jettySize=auto;html=1;exitX=0;exitY=0.75;exitDx=0;exitDy=0;entryX=1;entryY=0.75;entryDx=0;entryDy=0;fontSize=17;" edge="1" parent="1" source="wBIS5orwxucfIh2n_rTm-1831" target="wBIS5orwxucfIh2n_rTm-1824">
          <mxGeometry relative="1" as="geometry" />
        </mxCell>
        <mxCell id="wBIS5orwxucfIh2n_rTm-1831" value="Storage" style="rounded=0;whiteSpace=wrap;html=1;fontSize=17;fillColor=#fff2cc;strokeColor=#d6b656;" vertex="1" parent="1">
          <mxGeometry x="680" y="734" width="120" height="60" as="geometry" />
        </mxCell>
      </root>
    </mxGraphModel>
  </diagram>
</mxfile>
